<svg width="22" height="22" viewBox="0 0 22 22" fill="none" xmlns="http://www.w3.org/2000/svg">
<g clip-path="url(#clip0)">
<path d="M21.9718 0.960616C21.9534 0.916066 21.9265 0.875595 21.8926 0.841449L21.1592 0.108116C21.0161 -0.0350214 20.784 -0.0350214 20.6408 0.108116L20.1667 0.582216L19.6926 0.108116C19.5494 -0.0350214 19.3173 -0.0350214 19.1741 0.108116L18.7 0.582216L18.2259 0.108116C18.0827 -0.0350214 17.8506 -0.0350214 17.7074 0.108116L17.2333 0.582216L16.7592 0.108116C16.6161 -0.0350214 16.3839 -0.0350214 16.2408 0.108116L15.7667 0.582216L15.2926 0.108116C15.1494 -0.0350214 14.9173 -0.0350214 14.7741 0.108116L14.3 0.582216L13.8259 0.108116C13.6827 -0.0350214 13.4506 -0.0350214 13.3074 0.108116L12.5741 0.841449C12.5401 0.875595 12.5132 0.916066 12.4949 0.960616C12.4765 1.00503 12.4669 1.0526 12.4667 1.10068V4.40068H0.366667C0.164175 4.40068 0 4.56486 0 4.76735V21.634C0 21.8365 0.164175 22.0007 0.366667 22.0007H14.6667C14.8692 22.0007 15.0333 21.8365 15.0333 21.634V13.934H21.6333C21.8358 13.934 22 13.7698 22 13.5673V1.10068C21.9998 1.0526 21.9902 1.00503 21.9718 0.960616ZM14.3 21.2673H0.733333V5.13402H14.3V21.2673ZM21.2667 13.2007H15.0333V4.76735C15.0333 4.56486 14.8692 4.40068 14.6667 4.40068H13.2V1.25248L13.5667 0.885816L14.0408 1.35992C14.184 1.50305 14.4161 1.50305 14.5592 1.35992L15.0333 0.885816L15.5074 1.35992C15.6506 1.50305 15.8827 1.50305 16.0259 1.35992L16.5 0.885816L16.9741 1.35992C17.1173 1.50305 17.3494 1.50305 17.4926 1.35992L17.9667 0.885816L18.4408 1.35992C18.584 1.50305 18.8161 1.50305 18.9592 1.35992L19.4333 0.885816L19.9074 1.35992C20.0506 1.50305 20.2827 1.50305 20.4259 1.35992L20.9 0.885816L21.2667 1.25248V13.2007Z" fill="#24D39B"/>
<path d="M14.6667 2.93329H14.3C14.0975 2.93329 13.9333 3.09746 13.9333 3.29996C13.9333 3.50245 14.0975 3.66662 14.3 3.66662H14.6667C14.8692 3.66662 15.0334 3.50245 15.0334 3.29996C15.0334 3.09746 14.8692 2.93329 14.6667 2.93329Z" fill="#24D39B"/>
<path d="M16.5 2.93329H16.1333C15.9308 2.93329 15.7667 3.09746 15.7667 3.29996C15.7667 3.50245 15.9308 3.66662 16.1333 3.66662H16.5C16.7025 3.66662 16.8667 3.50245 16.8667 3.29996C16.8667 3.09746 16.7025 2.93329 16.5 2.93329Z" fill="#24D39B"/>
<path d="M16.5 4.39996H16.1333C15.9308 4.39996 15.7667 4.56414 15.7667 4.76663C15.7667 4.96912 15.9308 5.1333 16.1333 5.1333H16.5C16.7025 5.1333 16.8667 4.96912 16.8667 4.76663C16.8667 4.56414 16.7025 4.39996 16.5 4.39996Z" fill="#24D39B"/>
<path d="M16.5 5.86664H16.1333C15.9308 5.86664 15.7667 6.03081 15.7667 6.2333C15.7667 6.4358 15.9308 6.59997 16.1333 6.59997H16.5C16.7025 6.59997 16.8667 6.4358 16.8667 6.2333C16.8667 6.03081 16.7025 5.86664 16.5 5.86664Z" fill="#24D39B"/>
<path d="M16.5 7.33328H16.1333C15.9308 7.33328 15.7667 7.49746 15.7667 7.69995C15.7667 7.90244 15.9308 8.06662 16.1333 8.06662H16.5C16.7025 8.06662 16.8667 7.90244 16.8667 7.69995C16.8667 7.49746 16.7025 7.33328 16.5 7.33328Z" fill="#24D39B"/>
<path d="M16.5 8.79996H16.1333C15.9308 8.79996 15.7667 8.96413 15.7667 9.16662C15.7667 9.36912 15.9308 9.53329 16.1333 9.53329H16.5C16.7025 9.53329 16.8667 9.36912 16.8667 9.16662C16.8667 8.96413 16.7025 8.79996 16.5 8.79996Z" fill="#24D39B"/>
<path d="M16.5 10.2666H16.1333C15.9308 10.2666 15.7667 10.4308 15.7667 10.6333C15.7667 10.8358 15.9308 11 16.1333 11H16.5C16.7025 11 16.8667 10.8358 16.8667 10.6333C16.8667 10.4308 16.7025 10.2666 16.5 10.2666Z" fill="#24D39B"/>
<path d="M18.3334 2.93329H17.9667C17.7642 2.93329 17.6 3.09746 17.6 3.29996C17.6 3.50245 17.7642 3.66662 17.9667 3.66662H18.3334C18.5359 3.66662 18.7 3.50245 18.7 3.29996C18.7 3.09746 18.5359 2.93329 18.3334 2.93329Z" fill="#24D39B"/>
<path d="M18.3334 4.39996H17.9667C17.7642 4.39996 17.6 4.56414 17.6 4.76663C17.6 4.96912 17.7642 5.1333 17.9667 5.1333H18.3334C18.5359 5.1333 18.7 4.96912 18.7 4.76663C18.7 4.56414 18.5359 4.39996 18.3334 4.39996Z" fill="#24D39B"/>
<path d="M18.3334 5.86664H17.9667C17.7642 5.86664 17.6 6.03081 17.6 6.2333C17.6 6.4358 17.7642 6.59997 17.9667 6.59997H18.3334C18.5359 6.59997 18.7 6.4358 18.7 6.2333C18.7 6.03081 18.5359 5.86664 18.3334 5.86664Z" fill="#24D39B"/>
<path d="M18.3334 7.33328H17.9667C17.7642 7.33328 17.6 7.49746 17.6 7.69995C17.6 7.90244 17.7642 8.06662 17.9667 8.06662H18.3334C18.5359 8.06662 18.7 7.90244 18.7 7.69995C18.7 7.49746 18.5359 7.33328 18.3334 7.33328Z" fill="#24D39B"/>
<path d="M18.3334 8.79996H17.9667C17.7642 8.79996 17.6 8.96413 17.6 9.16662C17.6 9.36912 17.7642 9.53329 17.9667 9.53329H18.3334C18.5359 9.53329 18.7 9.36912 18.7 9.16662C18.7 8.96413 18.5359 8.79996 18.3334 8.79996Z" fill="#24D39B"/>
<path d="M18.3334 10.2666H17.9667C17.7642 10.2666 17.6 10.4308 17.6 10.6333C17.6 10.8358 17.7642 11 17.9667 11H18.3334C18.5359 11 18.7 10.8358 18.7 10.6333C18.7 10.4308 18.5359 10.2666 18.3334 10.2666Z" fill="#24D39B"/>
<path d="M20.1667 2.93329H19.8C19.5975 2.93329 19.4333 3.09746 19.4333 3.29996C19.4333 3.50245 19.5975 3.66662 19.8 3.66662H20.1667C20.3692 3.66662 20.5333 3.50245 20.5333 3.29996C20.5333 3.09746 20.3692 2.93329 20.1667 2.93329Z" fill="#24D39B"/>
<path d="M20.1667 4.39996H19.8C19.5975 4.39996 19.4333 4.56414 19.4333 4.76663C19.4333 4.96912 19.5975 5.1333 19.8 5.1333H20.1667C20.3692 5.1333 20.5333 4.96912 20.5333 4.76663C20.5333 4.56414 20.3692 4.39996 20.1667 4.39996Z" fill="#24D39B"/>
<path d="M20.1667 5.86664H19.8C19.5975 5.86664 19.4333 6.03081 19.4333 6.2333C19.4333 6.4358 19.5975 6.59997 19.8 6.59997H20.1667C20.3692 6.59997 20.5333 6.4358 20.5333 6.2333C20.5333 6.03081 20.3692 5.86664 20.1667 5.86664Z" fill="#24D39B"/>
<path d="M20.1667 7.33328H19.8C19.5975 7.33328 19.4333 7.49746 19.4333 7.69995C19.4333 7.90244 19.5975 8.06662 19.8 8.06662H20.1667C20.3692 8.06662 20.5333 7.90244 20.5333 7.69995C20.5333 7.49746 20.3692 7.33328 20.1667 7.33328Z" fill="#24D39B"/>
<path d="M20.1667 8.79996H19.8C19.5975 8.79996 19.4333 8.96413 19.4333 9.16662C19.4333 9.36912 19.5975 9.53329 19.8 9.53329H20.1667C20.3692 9.53329 20.5333 9.36912 20.5333 9.16662C20.5333 8.96413 20.3692 8.79996 20.1667 8.79996Z" fill="#24D39B"/>
<path d="M20.1667 10.2666H19.8C19.5975 10.2666 19.4333 10.4308 19.4333 10.6333C19.4333 10.8358 19.5975 11 19.8 11H20.1667C20.3692 11 20.5333 10.8358 20.5333 10.6333C20.5333 10.4308 20.3692 10.2666 20.1667 10.2666Z" fill="#24D39B"/>
<path d="M12.8333 5.86664H2.19998C1.99749 5.86664 1.83331 6.03081 1.83331 6.2333V8.4333C1.83331 8.6358 1.99749 8.79997 2.19998 8.79997H12.8333C13.0358 8.79997 13.2 8.6358 13.2 8.4333V6.2333C13.2 6.03081 13.0358 5.86664 12.8333 5.86664ZM12.4666 8.06664H2.56665V6.59997H12.4666V8.06664Z" fill="#24D39B"/>
<path d="M12.8334 13.5666H10.2667C10.0642 13.5666 9.90002 13.7308 9.90002 13.9333V19.8C9.90002 20.0024 10.0642 20.1666 10.2667 20.1666H12.8334C13.0359 20.1666 13.2 20.0024 13.2 19.8V13.9333C13.2 13.7308 13.0359 13.5666 12.8334 13.5666ZM12.4667 19.4333H10.6334V14.3H12.4667V19.4333Z" fill="#24D39B"/>
<path d="M4.76665 17.2333H2.19998C1.99749 17.2333 1.83331 17.3975 1.83331 17.5999V19.7999C1.83331 20.0024 1.99749 20.1666 2.19998 20.1666H4.76665C4.96914 20.1666 5.13331 20.0024 5.13331 19.7999V17.5999C5.13331 17.3975 4.96914 17.2333 4.76665 17.2333ZM4.39998 19.4333H2.56665V17.9666H4.39998V19.4333Z" fill="#24D39B"/>
<path d="M8.79997 17.2333H6.2333C6.03081 17.2333 5.86664 17.3975 5.86664 17.5999V19.7999C5.86664 20.0024 6.03081 20.1666 6.2333 20.1666H8.79997C9.00246 20.1666 9.16664 20.0024 9.16664 19.7999V17.5999C9.16664 17.3975 9.00246 17.2333 8.79997 17.2333ZM8.4333 19.4333H6.59997V17.9666H8.4333V19.4333Z" fill="#24D39B"/>
<path d="M4.76665 13.5666H2.19998C1.99749 13.5666 1.83331 13.7308 1.83331 13.9333V16.1333C1.83331 16.3358 1.99749 16.5 2.19998 16.5H4.76665C4.96914 16.5 5.13331 16.3358 5.13331 16.1333V13.9333C5.13331 13.7308 4.96914 13.5666 4.76665 13.5666ZM4.39998 15.7666H2.56665V14.3H4.39998V15.7666Z" fill="#24D39B"/>
<path d="M8.79997 13.5666H6.2333C6.03081 13.5666 5.86664 13.7308 5.86664 13.9333V16.1333C5.86664 16.3358 6.03081 16.5 6.2333 16.5H8.79997C9.00246 16.5 9.16664 16.3358 9.16664 16.1333V13.9333C9.16664 13.7308 9.00246 13.5666 8.79997 13.5666ZM8.4333 15.7666H6.59997V14.3H8.4333V15.7666Z" fill="#24D39B"/>
<path d="M4.76665 9.89993H2.19998C1.99749 9.89993 1.83331 10.0641 1.83331 10.2666V12.4666C1.83331 12.6691 1.99749 12.8333 2.19998 12.8333H4.76665C4.96914 12.8333 5.13331 12.6691 5.13331 12.4666V10.2666C5.13331 10.0641 4.96914 9.89993 4.76665 9.89993ZM4.39998 12.0999H2.56665V10.6333H4.39998V12.0999Z" fill="#24D39B"/>
<path d="M8.79997 9.89993H6.2333C6.03081 9.89993 5.86664 10.0641 5.86664 10.2666V12.4666C5.86664 12.6691 6.03081 12.8333 6.2333 12.8333H8.79997C9.00246 12.8333 9.16664 12.6691 9.16664 12.4666V10.2666C9.16664 10.0641 9.00246 9.89993 8.79997 9.89993ZM8.4333 12.0999H6.59997V10.6333H8.4333V12.0999Z" fill="#24D39B"/>
<path d="M12.8334 9.89993H10.2667C10.0642 9.89993 9.90002 10.0641 9.90002 10.2666V12.4666C9.90002 12.6691 10.0642 12.8333 10.2667 12.8333H12.8334C13.0359 12.8333 13.2 12.6691 13.2 12.4666V10.2666C13.2 10.0641 13.0359 9.89993 12.8334 9.89993ZM12.4667 12.0999H10.6334V10.6333H12.4667V12.0999Z" fill="#24D39B"/>
</g>
<defs>
<clip-path id="clip0">
<rect width="22" height="22" fill="white"/>
</clip-path>
</defs>
</svg>
