<svg width="13" height="13" viewBox="0 0 13 13" fill="none" xmlns="http://www.w3.org/2000/svg">
<path d="M9.51922 12.3277C8.36545 12.832 7.36538 13 5.99997 13C2.80779 13 0 10.7772 0 7.11648C0 3.30606 2.84606 0 7.19243 0C10.577 0 13 2.26017 13 5.39805C13 8.125 11.4232 9.84344 9.34627 9.84344C8.44241 9.84344 7.78867 9.39514 7.69246 8.40511H7.65399C7.05796 9.35777 6.19258 9.84344 5.17327 9.84344C3.9233 9.84344 3.01943 8.94684 3.01943 7.41508C3.01943 5.13642 4.7502 3.06312 7.5193 3.06312C8.36545 3.06312 9.32682 3.26869 9.80783 3.53011L9.23104 6.98567C9.03885 8.08742 9.17332 8.59198 9.71183 8.61047C10.5387 8.62916 11.5771 7.60175 11.5771 5.45391C11.5771 3.02575 9.96174 1.13912 6.98079 1.13912C4.03874 1.13912 1.46162 3.38061 1.46162 6.94809C1.46162 10.0673 3.51926 11.8418 6.38477 11.8418C7.36559 11.8418 8.40414 11.6364 9.17311 11.244L9.51922 12.3277ZM7.8077 4.61358C7.65378 4.5762 7.46137 4.53883 7.21146 4.53883C5.94246 4.53883 4.94218 5.75291 4.94218 7.19103C4.94218 7.90075 5.26926 8.34905 5.90377 8.34905C6.61523 8.34905 7.36538 7.47114 7.53834 6.38788L7.8077 4.61358Z" fill="black"/>
</svg>
