<svg width="20" height="20" viewBox="0 0 20 20" fill="none" xmlns="http://www.w3.org/2000/svg">
<g clip-path="url(#clip0)">
<path d="M19.1718 4.43516C18.3886 3.98281 17.3832 4.25234 16.9308 5.03555L15.4753 7.55703V5.46875C15.4753 5.25313 15.3003 5.07812 15.0847 5.07812C14.8687 5.07812 14.6941 5.25313 14.6941 5.46875V8.90625V8.90977L10.4039 16.3406C10.3765 16.3875 10.3597 16.4398 10.3539 16.4941L10.0601 19.2188H0.787842V0.78125H14.6941V1.95312C14.6941 2.16875 14.8687 2.34375 15.0847 2.34375C15.3003 2.34375 15.4753 2.16875 15.4753 1.95312V0.390625C15.4753 0.175 15.3003 0 15.0847 0H0.397217C0.181201 0 0.0065918 0.175 0.0065918 0.390625V19.6094C0.0065918 19.825 0.181201 20 0.397217 20H15.0847C15.3003 20 15.4753 19.825 15.4753 19.6094V14.1191L19.7726 6.67617C20.2246 5.89297 19.9554 4.8875 19.1718 4.43516ZM11.0664 17.1742L12.1925 17.8242L10.8941 18.7727L11.0664 17.1742ZM14.6941 19.2188H11.6082L13.1378 18.1012C13.1816 18.0691 13.2183 18.0281 13.2457 17.9813L14.6941 15.4727V19.2188ZM12.7644 17.2523L11.2757 16.393L16.9933 6.49023L18.4816 7.34961L12.7644 17.2523ZM19.0957 6.28555L18.8722 6.67305L17.3839 5.81367L17.6074 5.42617C17.8441 5.01602 18.371 4.875 18.7812 5.11172C19.1917 5.34883 19.3328 5.87539 19.0957 6.28555Z" fill="black"/>
<path d="M15.0854 3.32031C14.9823 3.32031 14.8819 3.36211 14.8093 3.43477C14.7366 3.50742 14.6948 3.6082 14.6948 3.71094C14.6948 3.81406 14.7366 3.91445 14.8093 3.98711C14.8819 4.05977 14.9827 4.10156 15.0854 4.10156C15.1882 4.10156 15.289 4.05977 15.3616 3.98711C15.4343 3.91445 15.4761 3.81367 15.4761 3.71094C15.4761 3.6082 15.4343 3.50742 15.3616 3.43477C15.289 3.36211 15.1886 3.32031 15.0854 3.32031Z" fill="black"/>
<path d="M11.687 4.14062H3.79639C3.58037 4.14062 3.40576 4.31562 3.40576 4.53125C3.40576 4.74687 3.58037 4.92188 3.79639 4.92188H11.687C11.9026 4.92188 12.0776 4.74687 12.0776 4.53125C12.0776 4.31562 11.9026 4.14062 11.687 4.14062Z" fill="black"/>
<path d="M11.687 6.32812H3.79639C3.58037 6.32812 3.40576 6.50312 3.40576 6.71875C3.40576 6.93437 3.58037 7.10938 3.79639 7.10938H11.687C11.9026 7.10938 12.0776 6.93437 12.0776 6.71875C12.0776 6.50312 11.9026 6.32812 11.687 6.32812Z" fill="black"/>
<path d="M11.687 8.51562H8.78662C8.57061 8.51562 8.396 8.69062 8.396 8.90625C8.396 9.12187 8.57061 9.29688 8.78662 9.29688H11.687C11.9026 9.29688 12.0776 9.12187 12.0776 8.90625C12.0776 8.69062 11.9026 8.51562 11.687 8.51562Z" fill="black"/>
<path d="M12.0776 11.0938C12.0776 10.8781 11.9026 10.7031 11.687 10.7031H3.79639C3.58037 10.7031 3.40576 10.8781 3.40576 11.0938C3.40576 11.3094 3.58037 11.4844 3.79639 11.4844H11.687C11.9026 11.4844 12.0776 11.3094 12.0776 11.0938Z" fill="black"/>
<path d="M10.3979 13.2812C10.3979 13.0656 10.2229 12.8906 10.0073 12.8906H7.56592C7.3499 12.8906 7.17529 13.0656 7.17529 13.2812C7.17529 13.4969 7.3499 13.6719 7.56592 13.6719H10.0073C10.2229 13.6719 10.3979 13.4969 10.3979 13.2812Z" fill="black"/>
<path d="M3.79639 15.8594H7.23389C7.44951 15.8594 7.62451 15.6844 7.62451 15.4688C7.62451 15.2531 7.44951 15.0781 7.23389 15.0781H3.79639C3.58037 15.0781 3.40576 15.2531 3.40576 15.4688C3.40576 15.6844 3.58037 15.8594 3.79639 15.8594Z" fill="black"/>
<path d="M3.79639 9.29688H6.40029C6.61631 9.29688 6.79092 9.12187 6.79092 8.90625C6.79092 8.69062 6.61631 8.51562 6.40029 8.51562H3.79639C3.58037 8.51562 3.40576 8.69062 3.40576 8.90625C3.40576 9.12187 3.58037 9.29688 3.79639 9.29688Z" fill="black"/>
<path d="M3.79639 13.6719H5.80811C6.02373 13.6719 6.19873 13.4969 6.19873 13.2812C6.19873 13.0656 6.02373 12.8906 5.80811 12.8906H3.79639C3.58037 12.8906 3.40576 13.0656 3.40576 13.2812C3.40576 13.4969 3.58037 13.6719 3.79639 13.6719Z" fill="black"/>
</g>
<defs>
<clip-path id="clip0">
<rect width="20" height="20" fill="white"/>
</clip-path>
</defs>
</svg>
