<svg width="15" height="21" viewBox="0 0 15 21" fill="none" xmlns="http://www.w3.org/2000/svg">
<path d="M13.0276 2.75139H11.3087V1.90147C11.3087 1.62649 11.0373 1.50151 10.7885 1.50151H9.45411C9.13748 0.501582 8.34586 0.00161859 7.44117 0.00161859C6.54643 -0.0355593 5.7326 0.570818 5.42822 1.50151H4.11642C3.86762 1.50151 3.61883 1.62649 3.61883 1.90147V2.75139H1.89987C0.881232 2.7634 0.0478799 3.65156 0 4.77623V19.1001C0 20.2001 0.904696 21 1.89987 21H13.0276C14.0228 21 14.9275 20.2001 14.9275 19.1001V4.77627C14.8796 3.65156 14.0463 2.7634 13.0276 2.75139ZM4.52348 2.50144H5.76745C5.9846 2.47215 6.15902 2.28957 6.1972 2.05147C6.33114 1.40677 6.84289 0.943985 7.44117 0.926568C8.03391 0.946425 8.53795 1.41065 8.6625 2.05147C8.70306 2.2978 8.88899 2.48273 9.11484 2.50144H10.404V4.50129H4.52348V2.50144ZM14.0228 19.1002C14.0228 19.6502 13.5252 20.0001 13.0276 20.0001H1.89987C1.40228 20.0001 0.904696 19.6502 0.904696 19.1002V4.77627C0.950845 4.20382 1.37995 3.76185 1.89987 3.75137H3.61878V5.02628C3.64268 5.30638 3.86217 5.51591 4.11637 5.50127H10.7885C11.0474 5.51691 11.2737 5.31026 11.3087 5.02628V3.75132H13.0276C13.5475 3.76185 13.9766 4.20377 14.0227 4.77623V19.1002H14.0228Z" fill="black"/>
<path d="M5.72225 11.1758C5.55259 10.9781 5.27094 10.967 5.08894 11.1508L3.64142 12.6757L3.03076 11.9757C2.8611 11.7781 2.57945 11.767 2.39745 11.9507C2.22225 12.1536 2.22225 12.4728 2.39745 12.6757L3.32475 13.7256C3.40501 13.8249 3.52094 13.8799 3.64138 13.8756C3.76069 13.8738 3.8745 13.8198 3.95801 13.7256L5.72216 11.8758C5.89706 11.6984 5.90874 11.398 5.74826 11.2047C5.74004 11.1946 5.73134 11.185 5.72225 11.1758Z" fill="black"/>
<path d="M12.2134 12.2507H7.01143C6.7616 12.2507 6.55908 12.4746 6.55908 12.7507C6.55908 13.0268 6.7616 13.2506 7.01143 13.2506H12.2134C12.4632 13.2506 12.6658 13.0268 12.6658 12.7507C12.6658 12.4746 12.4632 12.2507 12.2134 12.2507Z" fill="black"/>
<path d="M5.72225 7.17609C5.55259 6.97843 5.27094 6.96728 5.08894 7.15111L3.64142 8.67598L3.03076 7.97601C2.8611 7.77835 2.57945 7.7672 2.39745 7.95103C2.22225 8.15391 2.22225 8.4731 2.39745 8.67598L3.32475 9.72591C3.40501 9.82524 3.52094 9.88017 3.64138 9.87591C3.76069 9.87404 3.8745 9.82012 3.95801 9.72591L5.72216 7.87605C5.89706 7.69873 5.90874 7.39824 5.74826 7.20499C5.74004 7.19489 5.73134 7.18527 5.72225 7.17609Z" fill="black"/>
<path d="M12.2134 8.25101H7.01143C6.7616 8.25101 6.55908 8.47484 6.55908 8.75097C6.55908 9.0271 6.7616 9.25093 7.01143 9.25093H12.2134C12.4632 9.25093 12.6658 9.0271 12.6658 8.75097C12.6658 8.47484 12.4632 8.25101 12.2134 8.25101Z" fill="black"/>
<path d="M5.72225 15.1755C5.55259 14.9778 5.27094 14.9667 5.08894 15.1505L3.64142 16.6753L3.03076 15.9754C2.8611 15.7777 2.57945 15.7666 2.39745 15.9504C2.22225 16.1533 2.22225 16.4725 2.39745 16.6753L3.32475 17.7253C3.40501 17.8246 3.52094 17.8795 3.64138 17.8753C3.76069 17.8734 3.8745 17.8195 3.95801 17.7253L5.72216 15.8754C5.89706 15.6981 5.90874 15.3976 5.74826 15.2044C5.74004 15.1943 5.73134 15.1847 5.72225 15.1755Z" fill="black"/>
<path d="M12.2134 16.2504H7.01143C6.7616 16.2504 6.55908 16.4742 6.55908 16.7504C6.55908 17.0265 6.7616 17.2503 7.01143 17.2503H12.2134C12.4632 17.2503 12.6658 17.0265 12.6658 16.7504C12.6658 16.4742 12.4632 16.2504 12.2134 16.2504Z" fill="black"/>
</svg>
