<svg width="14" height="14" viewBox="0 0 14 14" fill="none" xmlns="http://www.w3.org/2000/svg">
<path d="M12.3999 7.60002H7.60002V12.4C7.60002 12.7312 7.33118 13 6.99995 13C6.66882 13 6.39998 12.7312 6.39998 12.4V7.60002H1.59996C1.26883 7.60002 1 7.33118 1 7.00005C1 6.66882 1.26883 6.39998 1.59996 6.39998H6.39998V1.60007C6.39998 1.26884 6.66882 1 6.99995 1C7.33118 1 7.60002 1.26884 7.60002 1.60007V6.39998H12.3999C12.7312 6.39998 13 6.66882 13 7.00005C13 7.33118 12.7312 7.60002 12.3999 7.60002Z" fill="white" stroke="white" stroke-width="0.5"/>
</svg>
